<svg width="25" height="25" viewBox="0 0 25 25" fill="none" xmlns="http://www.w3.org/2000/svg">
<path d="M9 18V19C9 19.7956 9.31607 20.5587 9.87868 21.1213C10.4413 21.6839 11.2044 22 12 22C12.7956 22 13.5587 21.6839 14.1213 21.1213C14.6839 20.5587 15 19.7956 15 19V18M10 6C10 5.46957 10.2107 4.96086 10.5858 4.58579C10.9609 4.21071 11.4696 4 12 4C12.5304 4 13.0391 4.21071 13.4142 4.58579C13.7893 4.96086 14 5.46957 14 6C15.1484 6.54303 16.1274 7.38833 16.8321 8.4453C17.5367 9.50227 17.9404 10.7311 18 12V15C18.0753 15.6217 18.2954 16.2171 18.6428 16.7381C18.9902 17.2592 19.4551 17.6914 20 18H4C4.54494 17.6914 5.00981 17.2592 5.35719 16.7381C5.70457 16.2171 5.92474 15.6217 6 15V12C6.05956 10.7311 6.4633 9.50227 7.16795 8.4453C7.8726 7.38833 8.85159 6.54303 10 6Z" stroke="#6968EC" stroke-width="2" stroke-linecap="round" stroke-linejoin="round"/>
<circle cx="19" cy="6" r="5" fill="#F88080" stroke="#F3F6FF" stroke-width="2"/>
</svg>
