<svg width="24" height="25" viewBox="0 0 24 25" fill="none" xmlns="http://www.w3.org/2000/svg">
<g clip-path="url(#clip0_327_97)">
<path d="M12 10.5C11.2044 10.5 10.4413 10.1839 9.87868 9.62132C9.31607 9.05871 9 8.29565 9 7.5C9 6.70435 9.31607 5.94129 9.87868 5.37868C10.4413 4.81607 11.2044 4.5 12 4.5C12.7956 4.5 13.5587 4.81607 14.1213 5.37868C14.6839 5.94129 15 6.70435 15 7.5C15 8.29565 14.6839 9.05871 14.1213 9.62132C13.5587 10.1839 12.7956 10.5 12 10.5ZM8.968 15.749C9.17364 15.1065 9.57807 14.546 10.1229 14.1483C10.6678 13.7506 11.3249 13.5363 11.9995 13.5363C12.6741 13.5363 13.3312 13.7506 13.8761 14.1483C14.4209 14.546 14.8254 15.1065 15.031 15.749C15.0973 16.006 15.263 16.2261 15.4916 16.361C15.7202 16.4958 15.993 16.5343 16.25 16.468C16.507 16.4017 16.7271 16.236 16.862 16.0074C16.9968 15.7788 17.0353 15.506 16.969 15.249C15.658 10.302 8.339 10.304 7.032 15.249C6.9959 15.3772 6.98576 15.5113 7.00217 15.6434C7.01859 15.7755 7.06123 15.9031 7.12759 16.0185C7.19396 16.134 7.28271 16.235 7.38865 16.3157C7.49458 16.3963 7.61556 16.4551 7.74448 16.4884C7.87341 16.5217 8.00769 16.5289 8.13944 16.5096C8.2712 16.4903 8.39777 16.4449 8.51174 16.376C8.6257 16.3071 8.72477 16.2162 8.80312 16.1085C8.88147 16.0009 8.93752 15.8786 8.968 15.749ZM12.009 24.165C11.5156 24.1653 11.0394 23.9841 10.671 23.656L6.923 20.5H4C2.93913 20.5 1.92172 20.0786 1.17157 19.3284C0.421427 18.5783 0 17.5609 0 16.5V4.5C0 3.43913 0.421427 2.42172 1.17157 1.67157C1.92172 0.921427 2.93913 0.5 4 0.5L20 0.5C21.0609 0.5 22.0783 0.921427 22.8284 1.67157C23.5786 2.42172 24 3.43913 24 4.5V16.5C24 17.5609 23.5786 18.5783 22.8284 19.3284C22.0783 20.0786 21.0609 20.5 20 20.5H17.147L13.3 23.68C12.9436 23.9943 12.4842 24.1669 12.009 24.165ZM4 2.5C3.46957 2.5 2.96086 2.71071 2.58579 3.08579C2.21071 3.46086 2 3.96957 2 4.5V16.5C2 17.0304 2.21071 17.5391 2.58579 17.9142C2.96086 18.2893 3.46957 18.5 4 18.5H7.289C7.52465 18.5 7.75273 18.5832 7.933 18.735L11.979 22.145L16.151 18.729C16.3303 18.5809 16.5555 18.5 16.788 18.5H20C20.5304 18.5 21.0391 18.2893 21.4142 17.9142C21.7893 17.5391 22 17.0304 22 16.5V4.5C22 3.96957 21.7893 3.46086 21.4142 3.08579C21.0391 2.71071 20.5304 2.5 20 2.5H4Z" fill="#8F95A9"/>
</g>
<defs>
<clipPath id="clip0_327_97">
<rect width="24" height="24" fill="white" transform="translate(0 0.5)"/>
</clipPath>
</defs>
</svg>
