<svg width="24" height="25" viewBox="0 0 24 25" fill="none" xmlns="http://www.w3.org/2000/svg">
<g clip-path="url(#clip0_327_83)">
<path d="M21 1.50031H3C2.20435 1.50031 1.44129 1.81638 0.87868 2.37898C0.31607 2.94159 0 3.70466 0 4.50031L0 23.5003H24V4.50031C24 3.70466 23.6839 2.94159 23.1213 2.37898C22.5587 1.81638 21.7956 1.50031 21 1.50031ZM3 3.50031H21C21.2652 3.50031 21.5196 3.60566 21.7071 3.7932C21.8946 3.98073 22 4.23509 22 4.50031V5.1673L14.122 13.0463C13.5584 13.6076 12.7954 13.9228 12 13.9228C11.2046 13.9228 10.4416 13.6076 9.878 13.0463L2 5.1673V4.50031C2 4.23509 2.10536 3.98073 2.29289 3.7932C2.48043 3.60566 2.73478 3.50031 3 3.50031ZM2 21.5003V8.00031L8.464 14.4603C9.40263 15.3966 10.6743 15.9223 12 15.9223C13.3257 15.9223 14.5974 15.3966 15.536 14.4603L22 8.00031V21.5003H2Z" fill="#8F95A9"/>
</g>
<defs>
<clipPath id="clip0_327_83">
<rect width="24" height="24" fill="white" transform="translate(0 0.5)"/>
</clipPath>
</defs>
</svg>
