<svg width="24" height="25" viewBox="0 0 24 25" fill="none" xmlns="http://www.w3.org/2000/svg">
<g clip-path="url(#clip0_327_104)">
<path d="M12.0001 8.50061C11.209 8.50061 10.4356 8.73521 9.77784 9.17473C9.12005 9.61426 8.60736 10.239 8.30461 10.9699C8.00186 11.7008 7.92264 12.505 8.07698 13.281C8.23132 14.0569 8.61229 14.7696 9.1717 15.329C9.73111 15.8884 10.4438 16.2694 11.2198 16.4238C11.9957 16.5781 12.8 16.4989 13.5309 16.1961C14.2618 15.8934 14.8865 15.3807 15.326 14.7229C15.7655 14.0651 16.0001 13.2917 16.0001 12.5006C16.0001 11.4397 15.5787 10.4223 14.8286 9.67218C14.0784 8.92204 13.061 8.50061 12.0001 8.50061ZM12.0001 14.5006C11.6046 14.5006 11.2179 14.3833 10.889 14.1635C10.5601 13.9438 10.3037 13.6314 10.1524 13.266C10.001 12.9005 9.96138 12.4984 10.0386 12.1104C10.1157 11.7225 10.3062 11.3661 10.5859 11.0864C10.8656 10.8067 11.222 10.6162 11.6099 10.539C11.9979 10.4619 12.4 10.5015 12.7655 10.6529C13.1309 10.8042 13.4433 11.0606 13.6631 11.3895C13.8828 11.7184 14.0001 12.105 14.0001 12.5006C14.0001 13.031 13.7894 13.5398 13.4143 13.9148C13.0393 14.2899 12.5306 14.5006 12.0001 14.5006Z" fill="#6968EC"/>
<path d="M21.294 14.4L20.85 14.144C21.0499 13.0564 21.0499 11.9416 20.85 10.854L21.294 10.598C21.6355 10.401 21.9348 10.1387 22.1748 9.82606C22.4149 9.51341 22.591 9.15654 22.6932 8.77582C22.7953 8.3951 22.8215 7.99799 22.7702 7.60716C22.7188 7.21633 22.591 6.83944 22.394 6.498C22.1971 6.15656 21.9348 5.85727 21.6221 5.6172C21.3095 5.37714 20.9526 5.20101 20.5719 5.09886C20.1911 4.99672 19.794 4.97056 19.4032 5.02189C19.0124 5.07321 18.6355 5.20102 18.294 5.398L17.849 5.655C17.0086 4.93692 16.0427 4.38025 15 4.013V3.5C15 2.70435 14.684 1.94129 14.1214 1.37868C13.5588 0.81607 12.7957 0.5 12 0.5C11.2044 0.5 10.4413 0.81607 9.87872 1.37868C9.31611 1.94129 9.00004 2.70435 9.00004 3.5V4.013C7.95743 4.38157 6.99189 4.9396 6.15204 5.659L5.70504 5.4C5.01548 5.00218 4.19612 4.89457 3.42723 5.10086C2.65833 5.30715 2.00287 5.81044 1.60504 6.5C1.20722 7.18956 1.09962 8.00892 1.30591 8.77782C1.5122 9.54672 2.01548 10.2022 2.70504 10.6L3.14904 10.856C2.94915 11.9436 2.94915 13.0584 3.14904 14.146L2.70504 14.402C2.01548 14.7998 1.5122 15.4553 1.30591 16.2242C1.09962 16.9931 1.20722 17.8124 1.60504 18.502C2.00287 19.1916 2.65833 19.6948 3.42723 19.9011C4.19612 20.1074 5.01548 19.9998 5.70504 19.602L6.15004 19.345C6.99081 20.0632 7.95702 20.6199 9.00004 20.987V21.5C9.00004 22.2956 9.31611 23.0587 9.87872 23.6213C10.4413 24.1839 11.2044 24.5 12 24.5C12.7957 24.5 13.5588 24.1839 14.1214 23.6213C14.684 23.0587 15 22.2956 15 21.5V20.987C16.0427 20.6184 17.0082 20.0604 17.848 19.341L18.295 19.599C18.9846 19.9968 19.804 20.1044 20.5729 19.8981C21.3418 19.6918 21.9972 19.1886 22.395 18.499C22.7929 17.8094 22.9005 16.9901 22.6942 16.2212C22.4879 15.4523 21.9846 14.7968 21.295 14.399L21.294 14.4ZM18.746 10.624C19.0847 11.8511 19.0847 13.1469 18.746 14.374C18.6869 14.5876 18.7004 14.8147 18.7844 15.0198C18.8684 15.2249 19.0181 15.3963 19.21 15.507L20.294 16.133C20.5239 16.2656 20.6916 16.4841 20.7603 16.7403C20.829 16.9966 20.7932 17.2697 20.6605 17.4995C20.5279 17.7293 20.3095 17.897 20.0532 17.9658C19.7969 18.0345 19.5239 17.9986 19.294 17.866L18.208 17.238C18.0159 17.1267 17.7923 17.0826 17.5723 17.1124C17.3523 17.1423 17.1485 17.2445 16.993 17.403C16.103 18.3117 14.9816 18.96 13.75 19.278C13.5351 19.3333 13.3446 19.4585 13.2086 19.6339C13.0727 19.8094 12.9989 20.025 12.999 20.247V21.5C12.999 21.7652 12.8937 22.0196 12.7062 22.2071C12.5186 22.3946 12.2643 22.5 11.999 22.5C11.7338 22.5 11.4795 22.3946 11.2919 22.2071C11.1044 22.0196 10.999 21.7652 10.999 21.5V20.248C10.9992 20.026 10.9254 19.8104 10.7894 19.6349C10.6535 19.4595 10.463 19.3343 10.248 19.279C9.01639 18.9597 7.89537 18.31 7.00604 17.4C6.85057 17.2415 6.64678 17.1393 6.4268 17.1094C6.20682 17.0796 5.98315 17.1237 5.79104 17.235L4.70704 17.862C4.59327 17.9287 4.46743 17.9722 4.33677 17.9901C4.2061 18.008 4.0732 17.9998 3.9457 17.9661C3.8182 17.9324 3.69862 17.8738 3.59386 17.7937C3.4891 17.7136 3.40122 17.6135 3.33528 17.4993C3.26934 17.3851 3.22664 17.259 3.20964 17.1282C3.19264 16.9974 3.20168 16.8646 3.23623 16.7373C3.27079 16.61 3.33017 16.4909 3.41098 16.3866C3.49178 16.2824 3.5924 16.1952 3.70704 16.13L4.79104 15.504C4.98299 15.3933 5.13272 15.2219 5.2167 15.0168C5.30069 14.8117 5.31417 14.5846 5.25504 14.371C4.9164 13.1439 4.9164 11.8481 5.25504 10.621C5.31311 10.4079 5.29898 10.1815 5.21486 9.97729C5.13074 9.77305 4.98136 9.60241 4.79004 9.492L3.70604 8.866C3.47623 8.73339 3.30851 8.51492 3.23978 8.25865C3.17105 8.00239 3.20693 7.72931 3.33954 7.4995C3.47215 7.26969 3.69062 7.10197 3.94689 7.03324C4.20316 6.96451 4.47623 7.00039 4.70604 7.133L5.79204 7.761C5.98362 7.87251 6.20682 7.91721 6.42657 7.88807C6.64632 7.85893 6.85015 7.75759 7.00604 7.6C7.89613 6.69134 9.01747 6.04302 10.249 5.725C10.4647 5.66956 10.6556 5.54375 10.7917 5.3675C10.9277 5.19125 11.001 4.97464 11 4.752V3.5C11 3.23478 11.1054 2.98043 11.2929 2.79289C11.4805 2.60536 11.7348 2.5 12 2.5C12.2653 2.5 12.5196 2.60536 12.7071 2.79289C12.8947 2.98043 13 3.23478 13 3.5V4.752C12.9999 4.97396 13.0737 5.18964 13.2096 5.36508C13.3456 5.54052 13.5361 5.66573 13.751 5.721C14.9831 6.04015 16.1044 6.68988 16.994 7.6C17.1495 7.75847 17.3533 7.86069 17.5733 7.89057C17.7933 7.92044 18.0169 7.87626 18.209 7.765L19.293 7.138C19.4068 7.0713 19.5327 7.02777 19.6633 7.0099C19.794 6.99204 19.9269 7.00019 20.0544 7.0339C20.1819 7.06761 20.3015 7.1262 20.4062 7.20631C20.511 7.28642 20.5989 7.38646 20.6648 7.50067C20.7307 7.61488 20.7734 7.74101 20.7904 7.87179C20.8074 8.00257 20.7984 8.13542 20.7639 8.26269C20.7293 8.38997 20.6699 8.50915 20.5891 8.61337C20.5083 8.7176 20.4077 8.80482 20.293 8.87L19.209 9.496C19.0181 9.60671 18.8691 9.77748 18.7854 9.98169C18.7016 10.1859 18.6878 10.4121 18.746 10.625V10.624Z" fill="#6968EC"/>
</g>
<defs>
<clipPath id="clip0_327_104">
<rect width="24" height="24" fill="white" transform="translate(0 0.5)"/>
</clipPath>
</defs>
</svg>
