<svg width="24" height="25" viewBox="0 0 24 25" fill="none" xmlns="http://www.w3.org/2000/svg">
<g clip-path="url(#clip0_327_111)">
<path d="M2 21.5V3.5C2 3.23478 2.10536 2.98043 2.29289 2.79289C2.48043 2.60536 2.73478 2.5 3 2.5H8V0.5H3C2.20435 0.5 1.44129 0.81607 0.87868 1.37868C0.31607 1.94129 0 2.70435 0 3.5L0 21.5C0 22.2956 0.31607 23.0587 0.87868 23.6213C1.44129 24.1839 2.20435 24.5 3 24.5H8V22.5H3C2.73478 22.5 2.48043 22.3946 2.29289 22.2071C2.10536 22.0196 2 21.7652 2 21.5Z" fill="#8F95A9"/>
<path d="M23.1231 10.3784L18.5371 5.79239L17.1231 7.20639L21.3871 11.4704L5.00012 11.4994V13.4994L21.4431 13.4704L17.1211 17.7924L18.5351 19.2064L23.1211 14.6204C23.6838 14.0581 24.0001 13.2953 24.0005 12.4998C24.0009 11.7043 23.6853 10.9412 23.1231 10.3784Z" fill="#8F95A9"/>
</g>
<defs>
<clipPath id="clip0_327_111">
<rect width="24" height="24" fill="white" transform="translate(0 0.5)"/>
</clipPath>
</defs>
</svg>
